<?xml version="1.0" encoding="UTF-8" standalone="no"?>
<!-- Created with Inkscape (http://www.inkscape.org/) -->

<svg
   width="500mm"
   height="500mm"
   viewBox="0 0 500 500"
   version="1.1"
   id="svg18581"
   inkscape:version="1.2.1 (9c6d41e, 2022-07-14)"
   sodipodi:docname="a medias.svg"
   xmlns:inkscape="http://www.inkscape.org/namespaces/inkscape"
   xmlns:sodipodi="http://sodipodi.sourceforge.net/DTD/sodipodi-0.dtd"
   xmlns="http://www.w3.org/2000/svg"
   xmlns:svg="http://www.w3.org/2000/svg">
  <sodipodi:namedview
     id="namedview18583"
     pagecolor="#ffffff"
     bordercolor="#666666"
     borderopacity="1.0"
     inkscape:showpageshadow="2"
     inkscape:pageopacity="0.0"
     inkscape:pagecheckerboard="0"
     inkscape:deskcolor="#d1d1d1"
     inkscape:document-units="mm"
     showgrid="false"
     inkscape:zoom="0.4963834"
     inkscape:cx="749.42071"
     inkscape:cy="976.06003"
     inkscape:window-width="1862"
     inkscape:window-height="1016"
     inkscape:window-x="0"
     inkscape:window-y="0"
     inkscape:window-maximized="1"
     inkscape:current-layer="layer2" />
  <defs
     id="defs18578">
    <rect
       x="1623.8608"
       y="1185.652"
       width="307.02251"
       height="109.59292"
       id="rect445" />
    <rect
       x="1591.9538"
       y="324.04432"
       width="375.66081"
       height="303.48897"
       id="rect439" />
    <rect
       x="1236.993"
       y="1060.8662"
       width="249.41574"
       height="113.56069"
       id="rect433" />
    <rect
       x="396.63906"
       y="386.28905"
       width="310.55927"
       height="110.36555"
       id="rect427" />
    <rect
       x="984.74215"
       y="1389.9061"
       width="230.01079"
       height="89.609082"
       id="rect421" />
  </defs>
  <g
     inkscape:label="figuras"
     inkscape:groupmode="layer"
     id="layer1">
    <path
       id="path2285"
       style="fill:#dafaf9;fill-opacity:1;stroke:#000000;stroke-width:1.2102;stroke-linecap:square;stroke-linejoin:round"
       d="m 67.811229,228.49474 v 0.003 a 30.481682,30.321638 0 0 0 -0.0047,0 30.481682,30.321638 0 0 0 -30.477211,30.32478 30.481682,30.321638 0 0 0 30.481862,30.31856 v 0.003 H 219.8066 a 29.587498,30.324331 0 0 0 0.002,0 29.587498,30.324331 0 0 0 29.5863,-30.32424 v -0.006 a 29.587498,30.324331 0 0 0 -29.5883,-30.3187 h -0.004 z m 0.459403,21.57595 a 8.8241577,8.7485209 0 0 1 8.825301,8.74676 v 0.002 a 8.8241577,8.7485209 0 0 1 -8.823751,8.74882 8.8241577,8.7485209 0 0 1 -8.824784,-8.74779 8.8241577,8.7485209 0 0 1 8.823234,-8.74934 z m 151.742668,0 a 8.8241577,8.7485209 0 0 1 8.8253,8.74676 v 0.002 a 8.8241577,8.7485209 0 0 1 -8.82375,8.74882 8.8241577,8.7485209 0 0 1 -8.82478,-8.74779 8.8241577,8.7485209 0 0 1 8.82323,-8.74934 z" />
    <path
       id="path2285-3"
       style="display:inline;fill:#00d4aa;fill-opacity:1;stroke:#000000;stroke-width:1.2102;stroke-linecap:square;stroke-linejoin:round"
       d="m 94.229351,243.56309 -0.003,0.001 a 30.481682,30.321638 60.355266 0 0 -0.003,-0.004 30.481682,30.321638 60.355266 0 0 -41.430183,-11.48876 30.481682,30.321638 60.355266 0 0 -11.27318,41.48825 l -0.0027,0.001 75.179932,132.1014 a 29.587498,30.324331 60.355266 0 0 0.001,0.002 29.587498,30.324331 60.355266 0 0 40.98906,10.71473 l 0.005,-0.003 a 29.587498,30.324331 60.355266 0 0 11.71575,-40.713 l -0.001,-0.003 z m -18.52462,11.07118 a 8.8241577,8.7485209 60.355266 0 1 -3.236711,11.99647 l -0.0019,0.002 a 8.8241577,8.7485209 60.355266 0 1 -11.968085,-3.34146 8.8241577,8.7485209 60.355266 0 1 3.237862,-11.99653 8.8241577,8.7485209 60.355266 0 1 11.968283,3.34075 z m 75.055039,131.88092 a 8.8241577,8.7485209 60.355266 0 1 -3.2367,11.99647 l -0.002,10e-4 a 8.8241577,8.7485209 60.355266 0 1 -11.9681,-3.34145 8.8241577,8.7485209 60.355266 0 1 3.23787,-11.99653 8.8241577,8.7485209 60.355266 0 1 11.96829,3.34074 z" />
    <path
       id="path2285-7"
       style="display:inline;fill:#00ccff;fill-opacity:1;stroke:#000000;stroke-width:1.2102;stroke-linecap:square;stroke-linejoin:round"
       d="m 348.04527,130.42336 -0.002,0.003 a 30.481682,30.321638 39.23632 0 0 -0.004,-0.003 30.481682,30.321638 39.23632 0 0 -42.78695,4.2104 30.481682,30.321638 39.23632 0 0 4.43242,42.76345 l -0.002,0.003 117.72709,96.14021 a 29.587498,30.324331 39.23632 0 0 0.002,0.001 29.587498,30.324331 39.23632 0 0 42.09662,-4.7739 l 0.004,-0.005 a 29.587498,30.324331 39.23632 0 0 -3.74008,-42.19783 l -0.003,-0.003 z m -13.2914,17.00209 a 8.8241577,8.7485209 39.23632 0 1 1.30308,12.35694 l -10e-4,0.002 a 8.8241577,8.7485209 39.23632 0 1 -12.3682,1.19513 8.8241577,8.7485209 39.23632 0 1 -1.30201,-12.3574 8.8241577,8.7485209 39.23632 0 1 12.3681,-1.19587 z m 117.53134,95.98034 a 8.8241577,8.7485209 39.23632 0 1 1.30308,12.35693 l -10e-4,0.002 a 8.8241577,8.7485209 39.23632 0 1 -12.36819,1.19514 8.8241577,8.7485209 39.23632 0 1 -1.30202,-12.3574 8.8241577,8.7485209 39.23632 0 1 12.36811,-1.19588 z" />
    <path
       id="path2285-6"
       style="display:inline;fill:#5599ff;fill-opacity:1;stroke:#000000;stroke-width:1.2102;stroke-linecap:square;stroke-linejoin:round"
       d="m 198.49992,237.3681 0.002,0.002 a 30.321638,30.481682 46.264955 0 0 -0.004,0.003 30.321638,30.481682 46.264955 0 0 -1.05688,42.98064 30.321638,30.481682 46.264955 0 0 42.98446,0.83365 l 0.002,0.002 109.82345,-105.07816 a 30.324331,29.587498 46.264955 0 0 0.001,-0.001 30.324331,29.587498 46.264955 0 0 0.41352,-42.36435 l -0.004,-0.004 a 30.324331,29.587498 46.264955 0 0 -42.33892,-1.45148 l -0.003,0.003 z m 15.24791,15.27198 a 8.7485209,8.8241577 46.264955 0 1 12.42353,0.21877 l 0.001,0.001 a 8.7485209,8.8241577 46.264955 0 1 -0.32729,12.42149 8.7485209,8.8241577 46.264955 0 1 -12.42385,-0.21988 8.7485209,8.8241577 46.264955 0 1 0.32654,-12.4215 z M 323.38866,147.73665 a 8.7485209,8.8241577 46.264955 0 1 12.42352,0.21877 l 10e-4,0.001 a 8.7485209,8.8241577 46.264955 0 1 -0.32728,12.42148 8.7485209,8.8241577 46.264955 0 1 -12.42385,-0.21988 8.7485209,8.8241577 46.264955 0 1 0.32654,-12.4215 z" />
  </g>
  <g
     inkscape:groupmode="layer"
     id="layer2"
     inkscape:label="flechas y texto">
    <path
       sodipodi:type="star"
       style="display:inline;fill:#000000;stroke:#000000;stroke-width:0.165;stroke-linecap:square;stroke-linejoin:round;stroke-dasharray:none;stroke-dashoffset:0"
       id="path11897-7-56"
       inkscape:flatsided="true"
       sodipodi:sides="3"
       sodipodi:cx="62.399899"
       sodipodi:cy="56.376617"
       sodipodi:r1="0.99342549"
       sodipodi:r2="0.49671274"
       sodipodi:arg1="2.5351781"
       sodipodi:arg2="3.5823756"
       inkscape:rounded="0"
       inkscape:randomized="0"
       d="m 61.583604,56.942795 0.734117,-1.556198 0.980649,1.413863 z"
       inkscape:transform-center-x="-0.30816656"
       inkscape:transform-center-y="0.48127603"
       transform="matrix(0.63916187,2.7938677,-2.8089937,0.740391,382.09836,21.67238)" />
    <path
       style="display:inline;fill:none;stroke:#000000;stroke-width:0.97513;stroke-linecap:butt;stroke-linejoin:miter;stroke-dasharray:none;stroke-opacity:1"
       d="m 263.99166,238.02253 49.3279,47.42061"
       id="path5829-2" />
    <path
       sodipodi:type="star"
       style="display:inline;fill:#000000;stroke:#000000;stroke-width:0.165;stroke-linecap:square;stroke-linejoin:round;stroke-dasharray:none;stroke-dashoffset:0"
       id="path11897-7-9"
       inkscape:flatsided="true"
       sodipodi:sides="3"
       sodipodi:cx="62.399899"
       sodipodi:cy="56.376617"
       sodipodi:r1="0.99342549"
       sodipodi:r2="0.49671274"
       sodipodi:arg1="2.5351781"
       sodipodi:arg2="3.5823756"
       inkscape:rounded="0"
       inkscape:randomized="0"
       d="m 61.583604,56.942795 0.734117,-1.556198 0.980649,1.413863 z"
       inkscape:transform-center-x="-0.063765367"
       inkscape:transform-center-y="-0.6473415"
       transform="matrix(-1.5663659,2.4001505,-2.4834916,-1.5069486,658.94593,178.46824)" />
    <path
       style="display:inline;fill:none;stroke:#000000;stroke-width:0.97513;stroke-linecap:butt;stroke-linejoin:miter;stroke-dasharray:none;stroke-opacity:1"
       d="m 421.25586,243.73697 0.1367,68.42468"
       id="path5829-1" />
    <text
       xml:space="preserve"
       transform="matrix(0.26458333,0,0,0.26458333,-57.749615,-17.366943)"
       id="text419"
       style="font-style:normal;font-weight:normal;font-size:42.6667px;line-height:1.25;font-family:sans-serif;white-space:pre;shape-inside:url(#rect421);fill:#000000;fill-opacity:1;stroke:none"><tspan
         x="984.74219"
         y="1427.6563"
         id="tspan3634">Eslab贸n 1</tspan></text>
    <text
       xml:space="preserve"
       transform="matrix(0.26458333,0,0,0.26458333,12.616086,54.097581)"
       id="text425"
       style="font-style:normal;font-weight:normal;font-size:42.6667px;line-height:1.25;font-family:sans-serif;white-space:pre;shape-inside:url(#rect427);fill:#000000;fill-opacity:1;stroke:none"><tspan
         x="396.63867"
         y="424.03909"
         id="tspan3636">Eslab贸n 2</tspan></text>
    <text
       xml:space="preserve"
       transform="matrix(0.26458333,0,0,0.26458333,-30.482762,9.5819055)"
       id="text431"
       style="font-style:normal;font-weight:normal;font-size:42.6667px;line-height:1.25;font-family:sans-serif;white-space:pre;shape-inside:url(#rect433);fill:#000000;fill-opacity:1;stroke:none"><tspan
         x="1236.9922"
         y="1098.6172"
         id="tspan3638">Eslab贸n 3</tspan></text>
    <text
       xml:space="preserve"
       transform="matrix(0.26458333,0,0,0.26458333,-33.801098,1.0583391)"
       id="text443"
       style="font-style:normal;font-weight:normal;font-size:42.6667px;line-height:1.25;font-family:sans-serif;white-space:pre;shape-inside:url(#rect445);fill:#000000;fill-opacity:1;stroke:none"><tspan
         x="1623.8613"
         y="1223.4024"
         id="tspan3640">Eslab贸n 4</tspan></text>
    <path
       sodipodi:type="star"
       style="display:inline;fill:#000000;stroke:#000000;stroke-width:0.165;stroke-linecap:square;stroke-linejoin:round;stroke-dasharray:none;stroke-dashoffset:0"
       id="path11897-7"
       inkscape:flatsided="true"
       sodipodi:sides="3"
       sodipodi:cx="62.399899"
       sodipodi:cy="56.376617"
       sodipodi:r1="0.99342549"
       sodipodi:r2="0.49671274"
       sodipodi:arg1="2.5351781"
       sodipodi:arg2="3.5823756"
       inkscape:rounded="0"
       inkscape:randomized="0"
       d="m 61.583604,56.942795 0.734117,-1.556198 0.980649,1.413863 z"
       inkscape:transform-center-x="0.54748716"
       inkscape:transform-center-y="0.16708946"
       transform="matrix(2.1116371,1.9378373,-1.8928513,2.203574,106.61098,99.0752)" />
    <path
       style="display:inline;fill:none;stroke:#000000;stroke-width:0.97513;stroke-linecap:butt;stroke-linejoin:miter;stroke-dasharray:none;stroke-opacity:1"
       d="m 132.12458,344.23971 67.52561,11.05657"
       id="path5829" />
    <path
       sodipodi:type="star"
       style="display:inline;fill:#000000;stroke:#000000;stroke-width:0.165;stroke-linecap:square;stroke-linejoin:round;stroke-dasharray:none;stroke-dashoffset:0"
       id="path11897-7-5"
       inkscape:flatsided="true"
       sodipodi:sides="3"
       sodipodi:cx="62.399899"
       sodipodi:cy="56.376617"
       sodipodi:r1="0.99342549"
       sodipodi:r2="0.49671274"
       sodipodi:arg1="2.5351781"
       sodipodi:arg2="3.5823756"
       inkscape:rounded="0"
       inkscape:randomized="0"
       d="m 61.583604,56.942795 0.734117,-1.556198 0.980649,1.413863 z"
       inkscape:transform-center-x="0.059276761"
       inkscape:transform-center-y="0.65145962"
       transform="matrix(1.5740199,-2.395138,2.4786682,1.514869,-94.047545,304.29864)" />
    <path
       style="display:inline;fill:none;stroke:#000000;stroke-width:0.97513;stroke-linecap:butt;stroke-linejoin:miter;stroke-dasharray:none;stroke-opacity:1"
       d="m 143.84967,239.78904 0.0817,-68.42477"
       id="path5829-3" />
  </g>
</svg>
