<?xml version="1.0" encoding="UTF-8" standalone="no"?>
<!-- Created with Inkscape (http://www.inkscape.org/) -->

<svg
   width="210mm"
   height="297mm"
   viewBox="0 0 210 297"
   version="1.1"
   id="svg5"
   inkscape:version="1.2.1 (9c6d41e, 2022-07-14)"
   sodipodi:docname="reto2.svg"
   xmlns:inkscape="http://www.inkscape.org/namespaces/inkscape"
   xmlns:sodipodi="http://sodipodi.sourceforge.net/DTD/sodipodi-0.dtd"
   xmlns="http://www.w3.org/2000/svg"
   xmlns:svg="http://www.w3.org/2000/svg">
  <sodipodi:namedview
     id="namedview7"
     pagecolor="#ffffff"
     bordercolor="#666666"
     borderopacity="1.0"
     inkscape:showpageshadow="2"
     inkscape:pageopacity="0.0"
     inkscape:pagecheckerboard="0"
     inkscape:deskcolor="#d1d1d1"
     inkscape:document-units="mm"
     showgrid="false"
     inkscape:zoom="0.99276681"
     inkscape:cx="205.48632"
     inkscape:cy="349.02456"
     inkscape:window-width="1862"
     inkscape:window-height="1016"
     inkscape:window-x="0"
     inkscape:window-y="0"
     inkscape:window-maximized="1"
     inkscape:current-layer="layer1" />
  <defs
     id="defs2">
    <inkscape:path-effect
       effect="powerstroke"
       id="path-effect3054"
       is_visible="true"
       lpeversion="1"
       offset_points="0,4.9921382"
       not_jump="false"
       sort_points="true"
       interpolator_type="CubicBezierJohan"
       interpolator_beta="0.2"
       start_linecap_type="zerowidth"
       linejoin_type="extrp_arc"
       miter_limit="4"
       scale_width="1"
       end_linecap_type="zerowidth" />
    <filter
       style="color-interpolation-filters:sRGB"
       id="filter429"
       inkscape:label="filtro0"
       x="-0.0029432513"
       y="-0.00295735"
       width="1.0058865"
       height="1.0059147">
      <feBlend
         mode="darken"
         in2="SourceGraphic"
         id="feBlend431" />
      <feFlood
         id="feFlood433"
         flood-color="rgb(52,101,164)"
         flood-opacity="1" />
      <feMorphology
         id="feMorphology435"
         operator="erode"
         radius="7.4569217289719631" />
    </filter>
  </defs>
  <g
     inkscape:label="Capa 1"
     inkscape:groupmode="layer"
     id="layer1">
    <path
       id="rect2208"
       style="fill:#ffffed;fill-opacity:1;stroke:#0000ff;stroke-width:0.161729"
       d="M 165.5284 65.889001 A 23.365997 23.254604 0 0 0 162.18907 66.132914 L 63.18064 66.132914 A 23.365997 23.254604 0 0 0 60.398381 65.952047 A 23.365997 23.254604 0 0 0 37.035465 89.209025 A 23.365997 23.254604 0 0 0 59.725037 112.43603 L 59.725037 112.47944 L 168.21247 112.47944 L 168.21247 112.22829 A 23.365997 23.254604 0 0 0 188.89803 89.143396 L 188.89803 89.138745 A 23.365997 23.254604 0 0 0 165.5284 65.889001 z M 168.23263 79.39412 A 9.0946312 9.0358105 0 0 1 177.32871 88.428194 L 177.32871 88.430261 A 9.0946312 9.0358105 0 0 1 168.23469 97.465885 A 9.0946312 9.0358105 0 0 1 159.13912 88.430778 A 9.0946312 9.0358105 0 0 1 168.23263 79.39412 z M 58.996916 79.803914 A 9.0946312 9.0358105 0 0 1 68.093001 88.837988 L 68.093001 88.839539 A 9.0946312 9.0358105 0 0 1 58.998983 97.87568 A 9.0946312 9.0358105 0 0 1 49.903414 88.840572 A 9.0946312 9.0358105 0 0 1 58.996916 79.803914 z " />
  </g>
</svg>
