<?xml version="1.0" encoding="UTF-8" standalone="no"?>
<!-- Created with Inkscape (http://www.inkscape.org/) -->

<svg
   width="210mm"
   height="297mm"
   viewBox="0 0 210 297"
   version="1.1"
   id="svg5"
   xml:space="preserve"
   inkscape:version="1.2.1 (8a69933317, 2022-10-28, custom)"
   sodipodi:docname="cupholder_servo.svg"
   xmlns:inkscape="http://www.inkscape.org/namespaces/inkscape"
   xmlns:sodipodi="http://sodipodi.sourceforge.net/DTD/sodipodi-0.dtd"
   xmlns="http://www.w3.org/2000/svg"
   xmlns:svg="http://www.w3.org/2000/svg"><sodipodi:namedview
     id="namedview7"
     pagecolor="#505050"
     bordercolor="#ffffff"
     borderopacity="1"
     inkscape:showpageshadow="0"
     inkscape:pageopacity="0"
     inkscape:pagecheckerboard="1"
     inkscape:deskcolor="#505050"
     inkscape:document-units="mm"
     showgrid="false"
     inkscape:zoom="13.690095"
     inkscape:cx="28.451228"
     inkscape:cy="19.21097"
     inkscape:window-width="1327"
     inkscape:window-height="713"
     inkscape:window-x="39"
     inkscape:window-y="27"
     inkscape:window-maximized="1"
     inkscape:current-layer="layer1" /><defs
     id="defs2" /><g
     inkscape:label="Capa 1"
     inkscape:groupmode="layer"
     id="layer1"><path
       style="fill:none;stroke:#000000;stroke-width:0.264583px;stroke-linecap:butt;stroke-linejoin:miter;stroke-opacity:1"
       d="m 3.6574428,6.3968484 7.5093282,0.5227624 c 0,0 0.373862,0.1965621 0.85034,0.334795 0.476479,0.1382332 0.794189,0.170067 1.206021,0.098549 0.411833,-0.071518 1.131841,-0.1527521 1.499636,-0.5988883 0.367796,-0.4461359 0.532281,-0.9114459 0.621918,-1.1895947 0.08964,-0.2781488 0.06964,-1.0909832 -0.03226,-1.2930449 -0.101902,-0.2020618 -0.384143,-0.772 -0.737411,-1.0169901 -0.353268,-0.2449901 -0.832917,-0.613349 -1.13266,-0.6574231 -0.299744,-0.044074 -1.068123,0.1611651 -1.293982,0.2258446 -0.225858,0.064679 -0.536671,0.294777 -0.536671,0.294777 L 2.9725196,3.557462 c 0,0 -0.5167088,0.1776101 -0.7854525,0.6292443 -0.2687438,0.4516342 -0.257734,0.8521851 -0.1716666,1.1681431 0.086067,0.315958 0.4367087,0.8345654 0.7694597,0.9326213 0.3327508,0.098056 0.8725826,0.1093777 0.8725826,0.1093777 z"
       id="path2399" /></g></svg>
